<svg xmlns="http://www.w3.org/2000/svg" viewBox="0 0 19 20"><defs><style>.cls-1{fill:#fff;}</style></defs><g id="Layer_2" data-name="Layer 2"><g id="Layer_1-2" data-name="Layer 1"><path class="cls-1" d="M19,2.83V17.16A2.84,2.84,0,0,1,16.17,20H9.34A2.84,2.84,0,0,1,6.5,17.16v-2.4a1.78,1.78,0,0,0,1.09-.52l2.8-2.81a1.84,1.84,0,0,0,.06-2.56L7.64,5.81A1.94,1.94,0,0,0,6.5,5.22V2.83A2.84,2.84,0,0,1,9.34,0h6.83A2.83,2.83,0,0,1,19,2.83ZM6.88,13.53l2.81-2.8a.85.85,0,0,0,0-1.18L6.91,6.49a.85.85,0,0,0-.41-.25.83.83,0,0,0-.22,0,.85.85,0,0,0-.63,1.43l.85.92L7,9.15H.85a.85.85,0,0,0,0,1.7H7.16l-.66.66-.82.82a.85.85,0,0,0,0,1.2.82.82,0,0,0,.6.25.78.78,0,0,0,.22,0A.86.86,0,0,0,6.88,13.53Z"/></g></g></svg>