<svg xmlns="http://www.w3.org/2000/svg" viewBox="0 0 233.99 233.91"><g id="Layer_2" data-name="Layer 2">
    <g id="Layer_1-2" data-name="Layer 1">
        <path d="M.12,116.78C.12,97-.2,77.17.21,57.37.68,34.52,11.61,17.68,31.46,6.65,40.07,1.88,49.46,0,59.29,0Q116.85.06,174.4,0C191,0,205.24,5.59,216.89,17.29a57,57,0,0,1,17,41.35c.09,27.3,0,54.6,0,81.91,0,11.8.05,23.61,0,35.42,0,28.43-22,53.67-50.16,57.19-6.91.86-14,.69-21,.7q-52.49.1-105,0C30.64,233.85,6.39,213.69,1.2,187c-1.45-7.45-1-14.94-1.06-22.43C.07,148.63.12,132.71.12,116.78Zm132.43,15.8c-.84.88-1.29,1.37-1.76,1.84L109.3,156a7.25,7.25,0,0,0-.27,10.4,7.14,7.14,0,0,0,10.39-.16q17.76-17.72,35.47-35.48c3.21-3.22,3.26-7.44.06-10.66q-17.76-17.85-35.66-35.56a9.19,9.19,0,0,0-4.86-2.22,6.72,6.72,0,0,0-6.91,4.2,7,7,0,0,0,1.69,8.26q10.74,10.79,21.51,21.53c.49.5,1,1,1.73,1.86h-80a7.25,7.25,0,0,0-5.25,12.56c1.8,1.7,4,1.89,6.35,1.89q36.8,0,73.59,0Zm40-10.06q0,29.51,0,59a8.79,8.79,0,0,0,17.57,0q0-58.65,0-117.29c0-5-3.71-8.58-8.85-8.61a8.38,8.38,0,0,0-8.74,8.64Z"/>
    </g>
</g>
</svg>