<svg xmlns="http://www.w3.org/2000/svg" viewBox="0 0 20 14.74"><defs><style>.cls-1{fill:#fff;}</style></defs><g id="Layer_2" data-name="Layer 2"><g id="Layer_1-2" data-name="Layer 1"><path class="cls-1" d="M0,4.17,3.82,6.49,9.28,9.83a1.23,1.23,0,0,0,1.42,0L19.77,4.3,20,4.16v7.52a3,3,0,0,1-3.08,3.06H4.12a11.89,11.89,0,0,1-1.69-.06A2.89,2.89,0,0,1,0,12.24l0-.1ZM3.07,0A2.94,2.94,0,0,0,.14,2.14a.21.21,0,0,0,.11.28L9.86,8.27a.24.24,0,0,0,.3,0L12.27,7l7.46-4.55c.14-.08.19-.16.12-.31a4.93,4.93,0,0,0-.36-.77A2.87,2.87,0,0,0,16.93,0H3.07Z"/></g></g></svg>