<svg xmlns="http://www.w3.org/2000/svg" viewBox="0 0 23 18.99"><defs><style>.cls-1{fill:#fff;}</style></defs><g id="Layer_2" data-name="Layer 2"><g id="Layer_1-2" data-name="Layer 1"><path class="cls-1" d="M12.51,15.21A6.26,6.26,0,1,0,8.16,3.74a6.29,6.29,0,0,0-1.35,9.47.34.34,0,0,1,.09.36c-.12.5-.22,1-.33,1.51a.57.57,0,0,0,.19.61c.22.16.42.07.62,0,.47-.26.93-.51,1.39-.78a.4.4,0,0,1,.38,0,6.31,6.31,0,0,0,2.35.47C11.84,15.28,12.18,15.27,12.51,15.21Zm2.18-7.34a1.18,1.18,0,0,1,0,2.35,1.18,1.18,0,1,1,0-2.35Zm-6.4,2.35A1.2,1.2,0,0,1,7.14,9a1.19,1.19,0,1,1,1.15,1.21Zm2-1.17a1.18,1.18,0,1,1,1.17,1.17A1.16,1.16,0,0,1,10.33,9.05ZM22,13.33a2.06,2.06,0,0,1-1.6.95,5.05,5.05,0,0,1-1.14-.2.25.25,0,0,0-.31.11,8.94,8.94,0,0,1-5.13,3.59l-.16.06v.3a.88.88,0,0,1-.86.84H10.22a.87.87,0,0,1-.85-.84,5.81,5.81,0,0,1,0-.59.88.88,0,0,1,.87-.85h1.39a7.27,7.27,0,0,0,4.8-1.76A7.17,7.17,0,0,0,18.57,12a7,7,0,0,0,.28-1.2c.09-.5.12-1,.23-1.51A4.58,4.58,0,0,0,18.89,7a7.46,7.46,0,0,0-6.27-5.51A7.65,7.65,0,0,0,3.88,8.07,6.67,6.67,0,0,0,4,9.86c.15,1.05.32,2.09.47,3.13a.85.85,0,0,1-.71,1.1,2.73,2.73,0,0,1-1.44.14A2.39,2.39,0,0,1,.85,13.09a5.13,5.13,0,0,1-.4-4.93A2.61,2.61,0,0,1,2.7,6.49c.07,0,.16-.12.18-.21a9.18,9.18,0,0,1,2.2-3.6,9,9,0,0,1,15,3.53c0,.12,0,.3.24.31a2.46,2.46,0,0,1,2.32,1.85A5.12,5.12,0,0,1,22,13.33Z"/></g></g></svg>