<svg xmlns="http://www.w3.org/2000/svg" viewBox="0 0 19 22.61">
    <defs><style>.cls-1{fill:#fff;}</style>
    </defs><g id="Layer_2" data-name="Layer 2"><g id="Layer_1-2" data-name="Layer 1">
    <path class="cls-1" d="M19,10.15c0,1.48,0,3,0,4.44a3.49,3.49,0,0,1-1.43,2.86c-2,1.51-4,3-6,4.48a3.48,3.48,0,0,1-4.14,0c-2-1.49-4-3-6-4.49A3.42,3.42,0,0,1,0,14.6c0-3,0-6,0-9A3.55,3.55,0,0,1,2.19,2.49L8.13.26a3.84,3.84,0,0,1,2.79,0l5.86,2.19A3.53,3.53,0,0,1,19,5.7C19,7.18,19,8.67,19,10.15ZM8,11.86c-.44-.44-.83-.84-1.23-1.23a.84.84,0,1,0-1.19,1.19l1.71,1.73a.84.84,0,0,0,1.35,0l3.07-3.07,1.68-1.68a.84.84,0,1,0-1.23-1.15L8.43,11.4C8.29,11.54,8.17,11.7,8,11.86Z"/></g></g></svg>