<svg xmlns="http://www.w3.org/2000/svg" viewBox="0 0 18.47 18.47"><defs><style>.cls-1{fill:#fff;}</style></defs><g id="Layer_2" data-name="Layer 2"><g id="Layer_1-2" data-name="Layer 1"><path class="cls-1" d="M0,18.47c.19-.78.37-1.51.56-2.25s.39-1.56.57-2.34a.48.48,0,0,0,0-.29A9,9,0,0,1,0,8.87,9.06,9.06,0,0,1,3.13,2.31,8.78,8.78,0,0,1,7.9.1a9,9,0,0,1,7.93,2.67,8.75,8.75,0,0,1,2.59,5.48,9.07,9.07,0,0,1-3.06,7.89,8.84,8.84,0,0,1-5.15,2.27,9.05,9.05,0,0,1-5.23-1,.61.61,0,0,0-.46-.05Zm11.52-4.88a2,2,0,0,0,2.2-1.47.84.84,0,0,0-.38-1A12.65,12.65,0,0,0,12,10.49a.89.89,0,0,0-1.18.4l-.16.24a.44.44,0,0,1-.63.22,5.53,5.53,0,0,1-3-2.68.41.41,0,0,1,.07-.5l.37-.44a.86.86,0,0,0,.13-.89c-.2-.46-.42-.91-.62-1.38a1.23,1.23,0,0,0-1.75-.3,3.42,3.42,0,0,0-.49.66,2.92,2.92,0,0,0,.12,2.9,11.66,11.66,0,0,0,3.21,3.5A6.35,6.35,0,0,0,11.52,13.59Z"/></g></g></svg>